# xmcd
#
# Track frame offsets:
#	182
#	34502
#	55032
#	74400
#	94782
#	111775
#	135240
#	154812
#	171407
#	194490
#	219257
#	238215
#	259132
#	277965
#	305557
#	318907
#
# Disc length: 4583 seconds
#
# Revision: 5
# Processed by: cddbd v1.5.2PL0 Copyright (c) Steve Scherf et al.
# Submitted via: EasyCDDAExtractor 16.0.9.1
#
DISCID=e111e510
DTITLE=Celine Dion - Falling Into You
DYEAR=1900
DGENRE=Blues
TTITLE0=It's All Coming Back To Me Now
TTITLE1=Because You Loved Me
TTITLE2=Falling Into You
TTITLE3=Make You Happy
TTITLE4=Seduces Me
TTITLE5=All By Myself
TTITLE6=Declaration Of Love
TTITLE7=(You Make Me Feel Like A) Natural Woman
TTITLE8=Dreamin' Of You
TTITLE9=I Love You
TTITLE10=If That's What It Takes
TTITLE11=I Don't Know
TTITLE12=River Deep, Mountain High
TTITLE13=Call The Man
TTITLE14=Fly
TTITLE15=To Love You More
EXTD=ID3G: 0
EXTT0=
EXTT1=
EXTT2=
EXTT3=
EXTT4=
EXTT5=
EXTT6=
EXTT7=
EXTT8=
EXTT9=
EXTT10=
EXTT11=
EXTT12=
EXTT13=
EXTT14=
EXTT15=
PLAYORDER=
